<svg width="1360" height="1360" viewBox="0 0 1360 1360" fill="none" xmlns="http://www.w3.org/2000/svg">
<g clip-path="url(#clip0)">
<rect width="1360" height="1360" fill="white"/>
<path d="M320.195 511.306C294.874 497.872 266.708 489.929 237.737 488.054C208.766 486.178 179.716 490.416 152.693 500.462C125.67 510.507 101.35 526.107 81.4956 546.133C61.6412 566.158 46.7497 590.107 37.9003 616.243C29.0508 642.379 26.465 670.049 30.3303 697.246C34.1956 724.443 44.4152 750.488 60.2484 773.491C76.0816 796.495 97.132 815.882 121.874 830.247C146.616 844.613 174.43 853.596 203.3 856.548L224.355 672.621L320.195 511.306Z" fill="#1F8BCC"/>
<rect width="8.19998" height="22.9396" rx="3" transform="matrix(0.888259 0.459344 -0.501119 0.865379 321.707 512.683)" fill="#1F8BCC"/>
<path d="M83.37 800.974C53.8687 772.035 35.1398 734.807 30.0152 694.917C24.8906 655.027 33.6489 614.645 54.9658 579.876L224.355 672.621L83.37 800.974Z" fill="#FEC923"/>
<path d="M258.08 854.855C226.472 860.079 193.989 857.88 163.491 848.453C132.993 839.025 105.415 822.657 83.1835 800.791L224.355 672.621L258.08 854.855Z" fill="#C50D15"/>
<ellipse rx="147.173" ry="133.92" transform="matrix(0.996018 0.0891553 -0.0997346 0.995014 224.251 640.317)" fill="white"/>
<path d="M227.611 753.079C226.947 748.799 226.615 746.659 227.956 745.626C229.298 744.593 231.449 745.332 235.751 746.811L361.73 790.124C366.293 791.693 368.575 792.478 368.889 794.158C369.203 795.839 367.337 797.276 363.604 800.15L257.078 882.181C253.345 885.056 251.479 886.493 249.8 885.863C248.122 885.233 247.77 882.963 247.065 878.423L227.611 753.079Z" fill="#C50D15"/>
<path d="M351.186 682.934H270.932L259.311 708.637C257.853 711.827 257.124 714.197 257.124 715.746C257.124 718.845 259.493 721.033 264.233 722.309V726H226.499V722.309C230.144 721.671 232.97 720.258 234.975 718.07C237.071 715.792 239.532 711.508 242.358 705.219L293.081 595.023C295.906 588.917 297.319 584.724 297.319 582.445C297.319 579.255 295.04 577.296 290.483 576.566V572.875H334.917V576.566C330.359 577.569 328.081 579.529 328.081 582.445C328.081 584.177 329.903 589.053 333.549 597.074L382.221 703.031C385.502 710.049 388.328 714.88 390.698 717.523C393.068 720.167 396.075 721.762 399.721 722.309V726H359.799V722.309C364.083 721.397 366.225 719.848 366.225 717.66C366.225 716.566 365.131 713.559 362.944 708.637L351.186 682.934ZM344.76 668.031L311.264 593.109L277.495 668.031H344.76ZM486.264 588.598V710.551C486.264 714.288 486.811 716.977 487.905 718.617C489.09 720.167 491.459 721.397 495.014 722.309V726H457.963V722.309C461.427 721.397 463.751 720.167 464.936 718.617C466.121 716.977 466.713 714.288 466.713 710.551V588.598H416.811C412.983 588.598 410.294 589.19 408.745 590.375C407.195 591.56 405.965 593.93 405.053 597.484H401.362V564.945H405.053C405.965 568.409 407.195 570.733 408.745 571.918C410.294 573.103 412.983 573.695 416.811 573.695H536.167C539.995 573.695 542.683 573.103 544.233 571.918C545.782 570.733 547.013 568.409 547.924 564.945H551.616V597.484H547.924C547.013 593.93 545.737 591.56 544.096 590.375C542.547 589.19 539.903 588.598 536.167 588.598H486.264ZM661.811 682.934H581.557L569.936 708.637C568.478 711.827 567.749 714.197 567.749 715.746C567.749 718.845 570.118 721.033 574.858 722.309V726H537.124V722.309C540.769 721.671 543.595 720.258 545.6 718.07C547.696 715.792 550.157 711.508 552.983 705.219L603.706 595.023C606.531 588.917 607.944 584.724 607.944 582.445C607.944 579.255 605.665 577.296 601.108 576.566V572.875H645.542V576.566C640.984 577.569 638.706 579.529 638.706 582.445C638.706 584.177 640.528 589.053 644.174 597.074L692.846 703.031C696.127 710.049 698.953 714.88 701.323 717.523C703.693 720.167 706.7 721.762 710.346 722.309V726H670.424V722.309C674.708 721.397 676.85 719.848 676.85 717.66C676.85 716.566 675.756 713.559 673.569 708.637L661.811 682.934ZM655.385 668.031L621.889 593.109L588.12 668.031H655.385ZM754.506 711.098H847.885C851.713 711.098 854.402 710.505 855.952 709.32C857.592 708.135 858.868 705.766 859.78 702.211H863.471V734.75H859.78C858.868 731.286 857.592 728.962 855.952 727.777C854.402 726.592 851.713 726 847.885 726H726.206V722.309C729.669 721.397 731.993 720.167 733.178 718.617C734.363 716.977 734.956 714.288 734.956 710.551V588.324C734.956 584.496 734.363 581.807 733.178 580.258C731.993 578.708 729.669 577.478 726.206 576.566V572.875H763.256V576.566C759.793 577.478 757.469 578.708 756.284 580.258C755.099 581.807 754.506 584.496 754.506 588.324V711.098ZM935.385 658.461V710.551C935.385 714.288 935.932 716.977 937.026 718.617C938.211 720.167 940.581 721.397 944.135 722.309V726H907.084V722.309C910.548 721.397 912.872 720.167 914.057 718.617C915.242 716.977 915.834 714.288 915.834 710.551V658.461L868.667 596.938C862.924 589.372 858.686 584.359 855.952 581.898C853.217 579.438 849.982 577.66 846.245 576.566V572.875H889.448V576.566C885.437 577.204 883.432 578.936 883.432 581.762C883.432 584.314 884.663 587.185 887.124 590.375L927.456 643.285L963.959 590.512C966.512 586.775 967.788 583.949 967.788 582.035C967.788 578.936 965.737 577.113 961.635 576.566V572.875H1001.56V576.566C997.456 577.934 993.673 580.303 990.209 583.676C986.746 586.957 982.006 592.79 975.991 601.176L935.385 658.461ZM1155.37 580.805L1140.33 610.609L1137.05 608.969C1137.5 606.326 1137.73 604.503 1137.73 603.5C1137.73 601.312 1134.77 598.669 1128.84 595.57C1116.26 588.826 1100.95 585.453 1082.9 585.453C1068.41 585.453 1056.11 588.142 1045.99 593.52C1035.87 598.988 1030.81 606.599 1030.81 616.352C1030.81 620.727 1032.09 624.691 1034.64 628.246C1037.2 631.71 1040.61 634.171 1044.9 635.629C1049.18 637.087 1053.83 638.044 1058.84 638.5C1063.86 638.956 1074.61 639.503 1091.11 640.141C1104.87 640.596 1115.26 641.462 1122.28 642.738C1129.39 644.014 1135.45 646.065 1140.46 648.891C1145.84 651.898 1150.08 656.273 1153.18 662.016C1156.28 667.667 1157.83 673.865 1157.83 680.609C1157.83 694.737 1152.04 705.993 1140.46 714.379C1126.61 724.314 1108.2 729.281 1085.23 729.281C1073.93 729.281 1062.03 727.549 1049.55 724.086C1037.15 720.622 1025.62 715.883 1014.96 709.867C1013.5 708.956 1012.4 708.5 1011.67 708.5C1010.31 708.5 1008.26 710.095 1005.52 713.285L1002.38 711.234L1019.74 682.113L1023.02 684.027C1022.75 685.121 1022.57 685.85 1022.48 686.215C1022.02 687.673 1021.79 688.858 1021.79 689.77C1021.79 692.322 1026.44 696.059 1035.74 700.98C1051.41 709.275 1067.68 713.422 1084.55 713.422C1099.95 713.422 1112.76 710.779 1122.96 705.492C1127.89 702.94 1131.8 699.522 1134.72 695.238C1137.64 690.863 1139.1 686.306 1139.1 681.566C1139.1 677.191 1137.87 673.272 1135.4 669.809C1132.94 666.345 1129.71 663.884 1125.7 662.426C1121.96 661.15 1117.77 660.238 1113.12 659.691C1108.56 659.145 1099.9 658.643 1087.14 658.188C1072.1 657.549 1061.35 656.82 1054.88 656C1048.41 655.089 1042.3 653.585 1036.56 651.488C1029.27 648.845 1023.39 644.561 1018.92 638.637C1014.45 632.53 1012.22 625.329 1012.22 617.035C1012.22 602.361 1018.87 590.831 1032.18 582.445C1045.76 573.878 1063.03 569.594 1084 569.594C1103.14 569.594 1122.37 573.878 1141.69 582.445C1144.61 583.63 1146.3 584.223 1146.75 584.223C1148.21 584.223 1149.94 582.536 1151.95 579.164L1155.37 580.805ZM1259.27 588.598V710.551C1259.27 714.288 1259.82 716.977 1260.91 718.617C1262.1 720.167 1264.47 721.397 1268.02 722.309V726H1230.97V722.309C1234.43 721.397 1236.76 720.167 1237.94 718.617C1239.13 716.977 1239.72 714.288 1239.72 710.551V588.598H1189.82C1185.99 588.598 1183.3 589.19 1181.75 590.375C1180.2 591.56 1178.97 593.93 1178.06 597.484H1174.37V564.945H1178.06C1178.97 568.409 1180.2 570.733 1181.75 571.918C1183.3 573.103 1185.99 573.695 1189.82 573.695H1309.17C1313 573.695 1315.69 573.103 1317.24 571.918C1318.79 570.733 1320.02 568.409 1320.93 564.945H1324.62V597.484H1320.93C1320.02 593.93 1318.74 591.56 1317.1 590.375C1315.55 589.19 1312.91 588.598 1309.17 588.598H1259.27Z" fill="black"/>
</g>
<defs>
<clipPath id="clip0">
<rect width="1360" height="1360" fill="white"/>
</clipPath>
</defs>
</svg>
