<svg width="1360" height="439" viewBox="0 0 1360 439" fill="none" xmlns="http://www.w3.org/2000/svg">
<g clip-path="url(#clip0)">
<rect width="1360" height="439" fill="white"/>
<path d="M309.196 51.3065C283.875 37.8722 255.708 29.9294 226.737 28.0537C197.766 26.178 168.717 30.4163 141.694 40.4615C114.67 50.5068 90.3505 66.1073 70.4961 86.1327C50.6417 106.158 35.7502 130.107 26.9008 156.243C18.0513 182.379 15.4655 210.049 19.3308 237.246C23.1961 264.443 33.4157 290.488 49.2489 313.491C65.0821 336.495 86.1324 355.882 110.874 370.247C135.616 384.613 163.43 393.596 192.301 396.548L213.356 212.621L309.196 51.3065Z" fill="#1F8BCC"/>
<rect width="8.19998" height="22.9396" rx="3" transform="matrix(0.888259 0.459344 -0.501119 0.865379 310.707 52.6832)" fill="#1F8BCC"/>
<path d="M72.3705 340.974C42.8692 312.035 24.1403 274.807 19.0157 234.917C13.8911 195.027 22.6494 154.645 43.9663 119.876L213.356 212.621L72.3705 340.974Z" fill="#FEC923"/>
<path d="M247.081 394.855C215.472 400.079 182.99 397.88 152.491 388.453C121.993 379.025 94.4151 362.657 72.184 340.791L213.356 212.621L247.081 394.855Z" fill="#C50D15"/>
<ellipse rx="147.173" ry="133.92" transform="matrix(0.996018 0.0891553 -0.0997346 0.995014 213.251 180.317)" fill="white"/>
<path d="M216.612 293.079C215.947 288.799 215.615 286.659 216.957 285.626C218.298 284.593 220.449 285.332 224.751 286.811L350.731 330.124C355.294 331.693 357.575 332.478 357.89 334.158C358.204 335.839 356.337 337.276 352.604 340.15L246.079 422.181C242.346 425.056 240.479 426.493 238.801 425.863C237.123 425.233 236.77 422.963 236.066 418.423L216.612 293.079Z" fill="#C50D15"/>
<path d="M340.186 222.934H259.932L248.311 248.637C246.852 251.827 246.123 254.197 246.123 255.746C246.123 258.845 248.493 261.033 253.232 262.309V266H215.498V262.309C219.144 261.671 221.969 260.258 223.975 258.07C226.071 255.792 228.532 251.508 231.357 245.219L282.08 135.023C284.906 128.917 286.318 124.724 286.318 122.445C286.318 119.255 284.04 117.296 279.482 116.566V112.875H323.916V116.566C319.359 117.569 317.08 119.529 317.08 122.445C317.08 124.177 318.903 129.053 322.549 137.074L371.221 243.031C374.502 250.049 377.327 254.88 379.697 257.523C382.067 260.167 385.075 261.762 388.721 262.309V266H348.799V262.309C353.083 261.397 355.225 259.848 355.225 257.66C355.225 256.566 354.131 253.559 351.943 248.637L340.186 222.934ZM333.76 208.031L300.264 133.109L266.494 208.031H333.76ZM475.264 128.598V250.551C475.264 254.288 475.811 256.977 476.904 258.617C478.089 260.167 480.459 261.397 484.014 262.309V266H446.963V262.309C450.426 261.397 452.751 260.167 453.936 258.617C455.12 256.977 455.713 254.288 455.713 250.551V128.598H405.811C401.982 128.598 399.294 129.19 397.744 130.375C396.195 131.56 394.964 133.93 394.053 137.484H390.361V104.945H394.053C394.964 108.409 396.195 110.733 397.744 111.918C399.294 113.103 401.982 113.695 405.811 113.695H525.166C528.994 113.695 531.683 113.103 533.232 111.918C534.782 110.733 536.012 108.409 536.924 104.945H540.615V137.484H536.924C536.012 133.93 534.736 131.56 533.096 130.375C531.546 129.19 528.903 128.598 525.166 128.598H475.264ZM650.811 222.934H570.557L558.936 248.637C557.477 251.827 556.748 254.197 556.748 255.746C556.748 258.845 559.118 261.033 563.857 262.309V266H526.123V262.309C529.769 261.671 532.594 260.258 534.6 258.07C536.696 255.792 539.157 251.508 541.982 245.219L592.705 135.023C595.531 128.917 596.943 124.724 596.943 122.445C596.943 119.255 594.665 117.296 590.107 116.566V112.875H634.541V116.566C629.984 117.569 627.705 119.529 627.705 122.445C627.705 124.177 629.528 129.053 633.174 137.074L681.846 243.031C685.127 250.049 687.952 254.88 690.322 257.523C692.692 260.167 695.7 261.762 699.346 262.309V266H659.424V262.309C663.708 261.397 665.85 259.848 665.85 257.66C665.85 256.566 664.756 253.559 662.568 248.637L650.811 222.934ZM644.385 208.031L610.889 133.109L577.119 208.031H644.385ZM743.506 251.098H836.885C840.713 251.098 843.402 250.505 844.951 249.32C846.592 248.135 847.868 245.766 848.779 242.211H852.471V274.75H848.779C847.868 271.286 846.592 268.962 844.951 267.777C843.402 266.592 840.713 266 836.885 266H715.205V262.309C718.669 261.397 720.993 260.167 722.178 258.617C723.363 256.977 723.955 254.288 723.955 250.551V128.324C723.955 124.496 723.363 121.807 722.178 120.258C720.993 118.708 718.669 117.478 715.205 116.566V112.875H752.256V116.566C748.792 117.478 746.468 118.708 745.283 120.258C744.098 121.807 743.506 124.496 743.506 128.324V251.098ZM924.385 198.461V250.551C924.385 254.288 924.932 256.977 926.025 258.617C927.21 260.167 929.58 261.397 933.135 262.309V266H896.084V262.309C899.548 261.397 901.872 260.167 903.057 258.617C904.242 256.977 904.834 254.288 904.834 250.551V198.461L857.666 136.938C851.924 129.372 847.686 124.359 844.951 121.898C842.217 119.438 838.981 117.66 835.244 116.566V112.875H878.447V116.566C874.437 117.204 872.432 118.936 872.432 121.762C872.432 124.314 873.662 127.185 876.123 130.375L916.455 183.285L952.959 130.512C955.511 126.775 956.787 123.949 956.787 122.035C956.787 118.936 954.736 117.113 950.635 116.566V112.875H990.557V116.566C986.455 117.934 982.673 120.303 979.209 123.676C975.745 126.957 971.006 132.79 964.99 141.176L924.385 198.461ZM1144.37 120.805L1129.33 150.609L1126.04 148.969C1126.5 146.326 1126.73 144.503 1126.73 143.5C1126.73 141.312 1123.77 138.669 1117.84 135.57C1105.26 128.826 1089.95 125.453 1071.9 125.453C1057.41 125.453 1045.11 128.142 1034.99 133.52C1024.87 138.988 1019.81 146.599 1019.81 156.352C1019.81 160.727 1021.09 164.691 1023.64 168.246C1026.19 171.71 1029.61 174.171 1033.9 175.629C1038.18 177.087 1042.83 178.044 1047.84 178.5C1052.85 178.956 1063.61 179.503 1080.11 180.141C1093.87 180.596 1104.26 181.462 1111.28 182.738C1118.39 184.014 1124.45 186.065 1129.46 188.891C1134.84 191.898 1139.08 196.273 1142.18 202.016C1145.28 207.667 1146.83 213.865 1146.83 220.609C1146.83 234.737 1141.04 245.993 1129.46 254.379C1115.61 264.314 1097.2 269.281 1074.23 269.281C1062.93 269.281 1051.03 267.549 1038.54 264.086C1026.15 260.622 1014.62 255.883 1003.96 249.867C1002.5 248.956 1001.4 248.5 1000.67 248.5C999.307 248.5 997.256 250.095 994.521 253.285L991.377 251.234L1008.74 222.113L1012.02 224.027C1011.75 225.121 1011.57 225.85 1011.47 226.215C1011.02 227.673 1010.79 228.858 1010.79 229.77C1010.79 232.322 1015.44 236.059 1024.74 240.98C1040.41 249.275 1056.68 253.422 1073.54 253.422C1088.95 253.422 1101.75 250.779 1111.96 245.492C1116.88 242.94 1120.8 239.522 1123.72 235.238C1126.64 230.863 1128.1 226.306 1128.1 221.566C1128.1 217.191 1126.87 213.272 1124.4 209.809C1121.94 206.345 1118.71 203.884 1114.7 202.426C1110.96 201.15 1106.77 200.238 1102.12 199.691C1097.56 199.145 1088.9 198.643 1076.14 198.188C1061.1 197.549 1050.35 196.82 1043.88 196C1037.41 195.089 1031.3 193.585 1025.56 191.488C1018.26 188.845 1012.39 184.561 1007.92 178.637C1003.45 172.53 1001.22 165.329 1001.22 157.035C1001.22 142.361 1007.87 130.831 1021.18 122.445C1034.76 113.878 1052.03 109.594 1073 109.594C1092.14 109.594 1111.37 113.878 1130.69 122.445C1133.61 123.63 1135.3 124.223 1135.75 124.223C1137.21 124.223 1138.94 122.536 1140.95 119.164L1144.37 120.805ZM1248.27 128.598V250.551C1248.27 254.288 1248.82 256.977 1249.91 258.617C1251.1 260.167 1253.47 261.397 1257.02 262.309V266H1219.97V262.309C1223.43 261.397 1225.76 260.167 1226.94 258.617C1228.13 256.977 1228.72 254.288 1228.72 250.551V128.598H1178.82C1174.99 128.598 1172.3 129.19 1170.75 130.375C1169.2 131.56 1167.97 133.93 1167.06 137.484H1163.37V104.945H1167.06C1167.97 108.409 1169.2 110.733 1170.75 111.918C1172.3 113.103 1174.99 113.695 1178.82 113.695H1298.17C1302 113.695 1304.69 113.103 1306.24 111.918C1307.79 110.733 1309.02 108.409 1309.93 104.945H1313.62V137.484H1309.93C1309.02 133.93 1307.74 131.56 1306.1 130.375C1304.55 129.19 1301.91 128.598 1298.17 128.598H1248.27Z" fill="black"/>
</g>
<defs>
<clipPath id="clip0">
<rect width="1360" height="439" fill="white"/>
</clipPath>
</defs>
</svg>
