<svg width="1095" height="1307" viewBox="0 0 1095 1307" fill="none" xmlns="http://www.w3.org/2000/svg">
<rect width="26.25" height="74.2964" rx="3" transform="matrix(0.884132 0.467236 -0.493 0.870029 934.149 81.7557)" fill="black"/>
<path fill-rule="evenodd" clip-rule="evenodd" d="M354.201 852.483L173.851 1019.8C244.669 1090.98 332.532 1144.25 429.704 1174.92C526.877 1205.59 630.38 1212.73 731.104 1195.69L683.112 930.309C649.92 933.999 615.763 934.421 581.067 931.247C496.418 923.504 419.08 895.323 354.201 852.483Z" fill="black"/>
<path fill-rule="evenodd" clip-rule="evenodd" d="M179.517 353.871L84.1356 300.525C16.1786 413.749 -11.7658 545.24 4.52755 675.118C20.8209 804.995 80.4661 926.197 174.445 1020.4L354.634 852.769C221.546 765.1 140.746 615.799 156.554 454.628C159.998 419.517 167.835 385.791 179.517 353.871Z" fill="black"/>
<path fill-rule="evenodd" clip-rule="evenodd" d="M452.925 23.1304C297.496 65.9594 165.315 165.355 84.2207 300.383L179.564 353.742C247.652 167.883 446.073 43.3249 666.183 63.4593C746.052 70.7653 819.412 96.266 881.939 135.107L917.478 70.7759C774.897 -2.61748 608.354 -19.6985 452.925 23.1304Z" fill="black"/>
<path d="M631.073 843.061C630.413 838.72 630.084 836.549 631.417 835.5C632.751 834.45 634.885 835.2 639.155 836.7L1084.33 993.112C1088.83 994.694 1091.08 995.485 1091.39 997.181C1091.69 998.878 1089.84 1000.33 1086.15 1003.24L709.721 1299.47C706.025 1302.38 704.178 1303.83 702.519 1303.2C700.86 1302.57 700.512 1300.28 699.817 1295.7L631.073 843.061Z" fill="black"/>
</svg>
