<?xml version="1.0" encoding="UTF-8"?>
<svg xmlns="http://www.w3.org/2000/svg" xmlns:xlink="http://www.w3.org/1999/xlink" width="128pt" height="128pt" viewBox="0 0 128 128" version="1.1">
<g id="surface1">
<rect x="0" y="0" width="128" height="128" style="fill:rgb(100%,100%,100%);fill-opacity:1;stroke:none;"/>
<path style=" stroke:none;fill-rule:nonzero;fill:rgb(12.156863%,54.509804%,80%);fill-opacity:1;" d="M 30.136719 48.121094 C 27.753906 46.859375 25.101562 46.109375 22.375 45.933594 C 19.648438 45.757812 16.914062 46.15625 14.371094 47.101562 C 11.828125 48.046875 9.539062 49.515625 7.671875 51.402344 C 5.800781 53.285156 4.398438 55.539062 3.566406 58 C 2.734375 60.460938 2.492188 63.0625 2.855469 65.625 C 3.21875 68.183594 4.179688 70.632812 5.671875 72.800781 C 7.160156 74.964844 9.140625 76.789062 11.46875 78.140625 C 13.800781 79.492188 16.417969 80.339844 19.132812 80.617188 L 21.117188 63.304688 Z M 30.136719 48.121094 "/>
<path style=" stroke:none;fill-rule:nonzero;fill:rgb(12.156863%,54.509804%,80%);fill-opacity:1;" d="M 30.527344 48.382812 L 30.714844 48.476562 C 30.851562 48.550781 30.902344 48.714844 30.824219 48.851562 L 30.023438 50.230469 C 29.945312 50.367188 29.769531 50.417969 29.632812 50.34375 L 29.445312 50.25 C 29.308594 50.179688 29.257812 50.011719 29.335938 49.875 L 30.136719 48.496094 C 30.214844 48.363281 30.390625 48.3125 30.527344 48.382812 Z M 30.527344 48.382812 "/>
<path style=" stroke:none;fill-rule:nonzero;fill:rgb(99.607843%,78.823529%,13.72549%);fill-opacity:1;" d="M 7.847656 75.386719 C 5.070312 72.664062 3.308594 69.160156 2.824219 65.402344 C 2.34375 61.648438 3.167969 57.847656 5.171875 54.578125 L 21.117188 63.304688 Z M 7.847656 75.386719 "/>
<path style=" stroke:none;fill-rule:nonzero;fill:rgb(77.254902%,5.098039%,8.235294%);fill-opacity:1;" d="M 24.289062 80.457031 C 21.316406 80.949219 18.257812 80.742188 15.386719 79.855469 C 12.515625 78.96875 9.921875 77.425781 7.828125 75.367188 L 21.117188 63.304688 Z M 24.289062 80.457031 "/>
<path style=" stroke:none;fill-rule:nonzero;fill:rgb(100%,100%,100%);fill-opacity:1;" d="M 34.902344 61.5 C 35.597656 54.574219 29.984375 48.40625 22.363281 47.722656 C 14.742188 47.042969 8.003906 52.105469 7.308594 59.03125 C 6.617188 65.957031 12.230469 72.125 19.847656 72.804688 C 27.46875 73.488281 34.207031 68.425781 34.902344 61.5 Z M 34.902344 61.5 "/>
<path style=" stroke:none;fill-rule:nonzero;fill:rgb(77.254902%,5.098039%,8.235294%);fill-opacity:1;" d="M 21.421875 70.878906 C 21.359375 70.476562 21.328125 70.273438 21.453125 70.175781 C 21.582031 70.078125 21.785156 70.148438 22.1875 70.289062 L 34.046875 74.363281 C 34.476562 74.511719 34.6875 74.585938 34.71875 74.746094 C 34.75 74.902344 34.574219 75.039062 34.222656 75.308594 L 24.195312 83.027344 C 23.84375 83.300781 23.667969 83.433594 23.511719 83.375 C 23.351562 83.316406 23.320312 83.101562 23.253906 82.675781 Z M 21.421875 70.878906 "/>
<path style=" stroke:none;fill-rule:nonzero;fill:rgb(0%,0%,0%);fill-opacity:1;" d="M 33.054688 64.277344 L 25.5 64.277344 L 24.40625 66.695312 C 24.269531 66.996094 24.199219 67.21875 24.199219 67.363281 C 24.199219 67.65625 24.421875 67.863281 24.867188 67.980469 L 24.867188 68.328125 L 21.316406 68.328125 L 21.316406 67.980469 C 21.660156 67.921875 21.925781 67.789062 22.117188 67.582031 C 22.3125 67.367188 22.542969 66.964844 22.808594 66.375 L 27.585938 56.003906 C 27.851562 55.425781 27.984375 55.03125 27.984375 54.816406 C 27.984375 54.519531 27.769531 54.332031 27.339844 54.265625 L 27.339844 53.917969 L 31.523438 53.917969 L 31.523438 54.265625 C 31.09375 54.359375 30.878906 54.542969 30.878906 54.816406 C 30.878906 54.980469 31.050781 55.441406 31.394531 56.195312 L 35.972656 66.167969 C 36.28125 66.828125 36.546875 67.28125 36.773438 67.53125 C 36.996094 67.78125 37.277344 67.929688 37.621094 67.980469 L 37.621094 68.328125 L 33.863281 68.328125 L 33.863281 67.980469 C 34.265625 67.894531 34.46875 67.75 34.46875 67.542969 C 34.46875 67.441406 34.367188 67.160156 34.160156 66.695312 Z M 32.449219 62.875 L 29.296875 55.820312 L 26.117188 62.875 Z M 45.765625 55.398438 L 45.765625 66.875 C 45.765625 67.226562 45.816406 67.480469 45.921875 67.632812 C 46.03125 67.78125 46.253906 67.894531 46.589844 67.980469 L 46.589844 68.328125 L 43.101562 68.328125 L 43.101562 67.980469 C 43.429688 67.894531 43.648438 67.78125 43.757812 67.632812 C 43.871094 67.480469 43.925781 67.226562 43.925781 66.875 L 43.925781 55.398438 L 39.230469 55.398438 C 38.867188 55.398438 38.617188 55.453125 38.46875 55.566406 C 38.324219 55.675781 38.207031 55.898438 38.121094 56.234375 L 37.773438 56.234375 L 37.773438 53.171875 L 38.121094 53.171875 C 38.207031 53.496094 38.324219 53.714844 38.46875 53.828125 C 38.617188 53.9375 38.867188 53.996094 39.230469 53.996094 L 50.460938 53.996094 C 50.824219 53.996094 51.074219 53.9375 51.222656 53.828125 C 51.367188 53.714844 51.484375 53.496094 51.570312 53.171875 L 51.917969 53.171875 L 51.917969 56.234375 L 51.570312 56.234375 C 51.484375 55.898438 51.363281 55.675781 51.210938 55.566406 C 51.0625 55.453125 50.8125 55.398438 50.460938 55.398438 Z M 62.289062 64.277344 L 54.734375 64.277344 L 53.640625 66.695312 C 53.503906 66.996094 53.433594 67.21875 53.433594 67.363281 C 53.433594 67.65625 53.65625 67.863281 54.105469 67.980469 L 54.105469 68.328125 L 50.554688 68.328125 L 50.554688 67.980469 C 50.894531 67.921875 51.160156 67.789062 51.351562 67.582031 C 51.546875 67.367188 51.78125 66.964844 52.046875 66.375 L 56.820312 56.003906 C 57.085938 55.425781 57.21875 55.03125 57.21875 54.816406 C 57.21875 54.519531 57.003906 54.332031 56.574219 54.265625 L 56.574219 53.917969 L 60.757812 53.917969 L 60.757812 54.265625 C 60.328125 54.359375 60.113281 54.542969 60.113281 54.816406 C 60.113281 54.980469 60.285156 55.441406 60.628906 56.195312 L 65.210938 66.167969 C 65.519531 66.828125 65.785156 67.28125 66.007812 67.53125 C 66.230469 67.78125 66.511719 67.929688 66.855469 67.980469 L 66.855469 68.328125 L 63.097656 68.328125 L 63.097656 67.980469 C 63.5 67.894531 63.703125 67.75 63.703125 67.542969 C 63.703125 67.441406 63.601562 67.160156 63.394531 66.695312 Z M 61.683594 62.875 L 58.53125 55.820312 L 55.351562 62.875 Z M 71.011719 66.925781 L 79.800781 66.925781 C 80.160156 66.925781 80.414062 66.871094 80.558594 66.757812 C 80.714844 66.648438 80.835938 66.425781 80.921875 66.089844 L 81.269531 66.089844 L 81.269531 69.152344 L 80.921875 69.152344 C 80.835938 68.828125 80.714844 68.609375 80.558594 68.496094 C 80.414062 68.386719 80.160156 68.328125 79.800781 68.328125 L 68.347656 68.328125 L 68.347656 67.980469 C 68.675781 67.894531 68.894531 67.78125 69.003906 67.632812 C 69.117188 67.480469 69.171875 67.226562 69.171875 66.875 L 69.171875 55.371094 C 69.171875 55.011719 69.117188 54.757812 69.003906 54.613281 C 68.894531 54.464844 68.675781 54.351562 68.347656 54.265625 L 68.347656 53.917969 L 71.835938 53.917969 L 71.835938 54.265625 C 71.511719 54.351562 71.292969 54.464844 71.179688 54.613281 C 71.066406 54.757812 71.011719 55.011719 71.011719 55.371094 Z M 88.035156 61.972656 L 88.035156 66.875 C 88.035156 67.226562 88.085938 67.480469 88.191406 67.632812 C 88.300781 67.78125 88.523438 67.894531 88.859375 67.980469 L 88.859375 68.328125 L 85.371094 68.328125 L 85.371094 67.980469 C 85.699219 67.894531 85.917969 67.78125 86.027344 67.632812 C 86.140625 67.480469 86.195312 67.226562 86.195312 66.875 L 86.195312 61.972656 L 81.757812 56.183594 C 81.214844 55.46875 80.816406 55 80.558594 54.765625 C 80.304688 54.535156 80 54.367188 79.648438 54.265625 L 79.648438 53.917969 L 83.710938 53.917969 L 83.710938 54.265625 C 83.335938 54.324219 83.148438 54.488281 83.148438 54.753906 C 83.148438 54.996094 83.261719 55.265625 83.492188 55.566406 L 87.289062 60.542969 L 90.726562 55.578125 C 90.964844 55.226562 91.085938 54.960938 91.085938 54.78125 C 91.085938 54.488281 90.894531 54.316406 90.507812 54.265625 L 90.507812 53.917969 L 94.265625 53.917969 L 94.265625 54.265625 C 93.878906 54.394531 93.523438 54.617188 93.195312 54.933594 C 92.871094 55.242188 92.425781 55.792969 91.859375 56.582031 Z M 108.742188 54.664062 L 107.324219 57.46875 L 107.015625 57.316406 C 107.058594 57.066406 107.082031 56.894531 107.082031 56.800781 C 107.082031 56.59375 106.800781 56.34375 106.242188 56.054688 C 105.058594 55.417969 103.617188 55.101562 101.921875 55.101562 C 100.554688 55.101562 99.398438 55.355469 98.445312 55.859375 C 97.492188 56.375 97.015625 57.089844 97.015625 58.007812 C 97.015625 58.421875 97.136719 58.792969 97.378906 59.128906 C 97.617188 59.453125 97.941406 59.6875 98.34375 59.824219 C 98.746094 59.960938 99.183594 60.050781 99.65625 60.09375 C 100.128906 60.136719 101.140625 60.1875 102.691406 60.25 C 103.988281 60.292969 104.964844 60.371094 105.625 60.492188 C 106.296875 60.613281 106.867188 60.804688 107.335938 61.070312 C 107.84375 61.355469 108.242188 61.765625 108.535156 62.308594 C 108.828125 62.839844 108.972656 63.421875 108.972656 64.058594 C 108.972656 65.386719 108.425781 66.445312 107.335938 67.234375 C 106.035156 68.171875 104.300781 68.636719 102.140625 68.636719 C 101.074219 68.636719 99.957031 68.476562 98.78125 68.148438 C 97.613281 67.824219 96.527344 67.378906 95.527344 66.8125 C 95.386719 66.726562 95.285156 66.683594 95.214844 66.683594 C 95.089844 66.683594 94.894531 66.832031 94.636719 67.132812 L 94.339844 66.941406 L 95.976562 64.199219 L 96.285156 64.378906 C 96.257812 64.480469 96.242188 64.550781 96.234375 64.585938 C 96.191406 64.722656 96.167969 64.832031 96.167969 64.917969 C 96.167969 65.160156 96.605469 65.511719 97.480469 65.972656 C 98.957031 66.753906 100.488281 67.144531 102.074219 67.144531 C 103.523438 67.144531 104.730469 66.898438 105.691406 66.398438 C 106.15625 66.160156 106.523438 65.835938 106.796875 65.433594 C 107.070312 65.023438 107.210938 64.59375 107.210938 64.148438 C 107.210938 63.734375 107.09375 63.367188 106.859375 63.039062 C 106.628906 62.714844 106.324219 62.484375 105.949219 62.347656 C 105.597656 62.226562 105.203125 62.140625 104.765625 62.089844 C 104.335938 62.039062 103.519531 61.988281 102.320312 61.945312 C 100.902344 61.886719 99.890625 61.816406 99.28125 61.742188 C 98.675781 61.65625 98.097656 61.515625 97.558594 61.316406 C 96.871094 61.066406 96.320312 60.664062 95.898438 60.105469 C 95.476562 59.53125 95.269531 58.855469 95.269531 58.074219 C 95.269531 56.691406 95.894531 55.609375 97.144531 54.816406 C 98.425781 54.011719 100.050781 53.609375 102.023438 53.609375 C 103.824219 53.609375 105.636719 54.011719 107.453125 54.816406 C 107.726562 54.929688 107.886719 54.984375 107.929688 54.984375 C 108.066406 54.984375 108.230469 54.828125 108.417969 54.507812 Z M 118.519531 55.398438 L 118.519531 66.875 C 118.519531 67.226562 118.570312 67.480469 118.675781 67.632812 C 118.785156 67.78125 119.007812 67.894531 119.34375 67.980469 L 119.34375 68.328125 L 115.855469 68.328125 L 115.855469 67.980469 C 116.183594 67.894531 116.402344 67.78125 116.511719 67.632812 C 116.625 67.480469 116.679688 67.226562 116.679688 66.875 L 116.679688 55.398438 L 111.984375 55.398438 C 111.621094 55.398438 111.371094 55.453125 111.222656 55.566406 C 111.078125 55.675781 110.960938 55.898438 110.875 56.234375 L 110.527344 56.234375 L 110.527344 53.171875 L 110.875 53.171875 C 110.960938 53.496094 111.078125 53.714844 111.222656 53.828125 C 111.371094 53.9375 111.621094 53.996094 111.984375 53.996094 L 123.214844 53.996094 C 123.578125 53.996094 123.828125 53.9375 123.976562 53.828125 C 124.121094 53.714844 124.238281 53.496094 124.324219 53.171875 L 124.671875 53.171875 L 124.671875 56.234375 L 124.324219 56.234375 C 124.238281 55.898438 124.117188 55.675781 123.960938 55.566406 C 123.816406 55.453125 123.566406 55.398438 123.214844 55.398438 Z M 118.519531 55.398438 "/>
</g>
</svg>
